<?xml version="1.0" encoding="UTF-8"?>
<svg width="120px" height="60px" viewBox="0 0 120 60" version="1.1" xmlns="http://www.w3.org/2000/svg" xmlns:xlink="http://www.w3.org/1999/xlink">
    <title>logo/freetv/large/gradient on dark</title>
    <defs>
        <path d="M37.4198483,0 C37.2032129,0 36.9925112,0.0113333333 36.777469,0.0177777778 L36.777469,0.0177777778 C36.4640262,0.0202222222 36.1411333,0.0634444444 35.8229654,0.0946666667 L35.8229654,0.0946666667 C34.5431516,0.241111111 33.2348229,0.608444444 32.0358284,1.21344444 L32.0358284,1.21344444 C30.8320539,1.80883333 29.7469537,2.61794444 28.8471721,3.53511111 L28.8471721,3.53511111 C27.9377758,4.44744444 27.1826559,5.44861111 26.5652751,6.47861111 L26.5652751,6.47861111 C25.9455867,7.50855556 25.4399026,8.56255556 25.0077305,9.61655556 L25.0077305,9.61655556 C24.1553637,11.7268889 23.5783651,13.8445 23.1272381,15.9236667 L23.1272381,15.9236667 C22.8993396,16.9824444 22.7094059,17.9476111 22.5028248,18.9439444 L22.5028248,18.9439444 L22.2789919,20.054 C20.711393,20.0766111 19.1426403,20.1141667 17.5735579,20.166 L17.5735579,20.166 C16.6642165,20.1972222 15.75493,20.2308333 14.8431161,20.2764444 L14.8431161,20.2764444 L13.4731977,20.3460556 L12.0746547,20.4348889 C12.0461399,20.4372778 12.0058126,20.4397222 11.9772978,20.4421111 L11.9772978,20.4421111 C11.8452178,20.4559444 11.4270559,20.4697778 11.0953723,20.4841667 L11.0953723,20.4841667 C10.8775282,20.4936667 10.7198453,20.6972222 10.7619307,20.9135 L10.7619307,20.9135 L11.7803865,26.1480556 C11.8141757,26.3211111 11.966749,26.4440556 12.1411342,26.4383333 L12.1411342,26.4383333 C12.311179,26.4327778 12.4958384,26.4268889 12.5375941,26.4202778 L12.5375941,26.4202778 L12.6089086,26.4131111 L13.895755,26.2882222 L15.2134787,26.1777778 C16.0943603,26.1033889 16.9800218,26.0409444 17.8633209,25.9809444 L17.8633209,25.9809444 C18.9495199,25.9087222 20.0382463,25.8441111 21.1281814,25.7847778 L21.1281814,25.7847778 L20.8977006,26.9341111 L20.7100744,27.8728333 L19.5253647,33.8270556 L19.2310416,35.318 L18.9364987,36.7777222 C18.7346426,37.7500556 18.5233365,38.7152222 18.300163,39.6731667 L18.300163,39.6731667 C18.0769895,40.6335 17.8420035,41.5866667 17.5903152,42.5326667 L17.5903152,42.5326667 C17.4643886,43.0056111 17.3338469,43.4761667 17.2008329,43.9442778 L17.2008329,43.9442778 L16.7782756,45.4088889 C16.2250668,47.3823889 15.7311951,49.1470556 14.9927776,50.5371667 L14.9927776,50.5371667 C14.6270851,51.2357778 14.2068354,51.8432222 13.7342811,52.3473889 L13.7342811,52.3473889 C13.2546393,52.8587778 12.703848,53.2765556 12.1506392,53.5574444 L12.1506392,53.5574444 C11.8727986,53.6991667 11.5973754,53.8095556 11.3267871,53.8792222 L11.3267871,53.8792222 C11.051309,53.9512222 10.8043457,53.9872222 10.5241426,53.9944444 L10.5241426,53.9944444 C10.2155346,54.0088333 9.94956147,53.9727778 9.7002906,53.932 L9.7002906,53.932 C9.45568979,53.8839444 9.24674619,53.8023333 9.04258252,53.7015 L9.04258252,53.7015 C8.64370518,53.5070556 8.26850775,53.1517222 7.8957827,52.6378889 L7.8957827,52.6378889 C7.53014514,52.1121111 7.20005491,51.4327222 6.93649918,50.6667778 L6.93649918,50.6667778 C6.39993773,49.1254444 6.10550472,47.3103333 5.93463577,45.4400556 L5.93463577,45.4400556 L5.93463577,45.4184444 C5.93029537,45.3715 5.92617474,45.3248889 5.92210905,45.2787222 L5.92210905,45.2787222 C5.90518698,45.0915556 5.74876772,44.9497222 5.56289967,44.9520556 L5.56289967,44.9520556 L0.351506779,45.0175556 C0.152013167,45.0201111 -0.0061092828,45.1868333 0.00018138812,45.3885556 L0.00018138812,45.3885556 C0.00779098816,45.6242222 0.0163619062,45.8946667 0.0248229407,45.9874444 L0.0248229407,45.9874444 C0.228931663,48.1458333 0.549516963,50.3691111 1.33776672,52.6619444 L1.33776672,52.6619444 C1.73428156,53.8047222 2.26617296,54.974 3.05442271,56.1096111 L3.05442271,56.1096111 C3.45335499,56.6762222 3.92107439,57.2283889 4.46950326,57.735 L4.46950326,57.735 C5.01573446,58.2415556 5.65437774,58.6953333 6.34768809,59.0482222 L6.34768809,59.0482222 C7.03869089,59.4012222 7.779416,59.6652778 8.5178885,59.8141667 L8.5178885,59.8141667 C9.14334575,59.9345556 9.76896783,59.9993889 10.3683277,60 L10.3683277,60 L10.3824478,60 C10.4835407,60 10.5838643,59.9980556 10.683309,59.9942222 L10.683309,59.9942222 C11.4050242,59.9773889 12.1553642,59.867 12.8486745,59.6821111 L12.8486745,59.6821111 C13.5491273,59.4972778 14.2091979,59.2307778 14.8240514,58.9162222 L14.8240514,58.9162222 C16.0612304,58.2823333 17.1224859,57.4517222 18.0247948,56.4937222 L18.0247948,56.4937222 C18.9364987,55.5333889 19.6654113,54.4577778 20.2376849,53.3677778 L20.2376849,53.3677778 C20.8193536,52.2753889 21.2443283,51.1757778 21.6029333,50.1169444 L21.6029333,50.1169444 C21.9543409,49.063 22.2416315,48.0402222 22.5170547,47.0822778 L22.5170547,47.0822778 L22.9396119,45.6321667 C23.0844934,45.1279444 23.2269574,44.6237778 23.3646965,44.1172222 L23.3646965,44.1172222 C23.6377022,43.1087778 23.8941705,42.0980556 24.1363538,41.0872778 L24.1363538,41.0872778 C24.3808448,40.0765 24.6089081,39.0633333 24.8273017,38.0549444 L24.8273017,38.0549444 L25.1454695,36.5423889 L25.451715,35.0514444 L26.6649944,29.0972778 L27.2277631,26.2930556 L27.3830835,25.5198889 C29.5394935,25.4500556 31.6976617,25.4006111 33.8569287,25.3831667 L33.8569287,25.3831667 C37.4184748,25.3591667 40.9824383,25.3687778 44.5439845,25.4719444 L44.5439845,25.4719444 C46.3270651,25.5079444 48.1055306,25.5896111 49.8862487,25.6568333 L49.8862487,25.6568333 C51.6670767,25.7288333 53.4453773,25.8465 55.2261504,25.9377222 L55.2261504,25.9377222 L55.2807625,25.9401111 C55.3236721,25.9441667 55.602117,25.9482222 55.84941,25.9518889 L55.84941,25.9518889 C56.0602765,25.955 56.2276292,25.7731111 56.2093885,25.5606111 L56.2093885,25.5606111 L55.9095712,21.7181111 C55.895671,21.54 55.7542508,21.3990556 55.5778877,21.3871111 L55.5778877,21.3871111 C55.4949256,21.3814444 55.4213036,21.3765556 55.3910307,21.3742778 L55.3910307,21.3742778 C53.5888853,21.2206111 51.9756847,21.0567222 50.1688143,20.9247222 L50.1688143,20.9247222 C48.3642514,20.7926667 46.557436,20.651 44.7505106,20.5549444 L44.7505106,20.5549444 C41.1367698,20.3292222 37.5158316,20.1972222 33.8949484,20.1012222 L33.8949484,20.1012222 C32.0928579,20.0557778 30.2909323,20.0301667 28.4881825,20.0210556 L28.4881825,20.0210556 L29.0513358,17.2225556 C29.4477957,15.3450556 29.9226575,13.5371667 30.5590482,11.8829444 L30.5590482,11.8829444 C31.204779,10.2455556 32.0168185,8.76183333 33.0188467,7.70544444 L33.0188467,7.70544444 C33.515026,7.17244444 34.0587848,6.75472222 34.6476508,6.44016667 L34.6476508,6.44016667 C35.2341544,6.12327778 35.8703802,5.89755556 36.5779205,5.7895 L36.5779205,5.7895 C36.7560417,5.77033333 36.9293281,5.7295 37.1168994,5.72472222 L37.1168994,5.72472222 C37.2997456,5.71272222 37.4920968,5.68872222 37.6607131,5.69588889 L37.6607131,5.69588889 C38.0097583,5.6815 38.351661,5.7175 38.6912012,5.76316667 L38.6912012,5.76316667 C39.0306865,5.80872222 39.3607218,5.89755556 39.690812,5.99838889 L39.690812,5.99838889 C40.0184298,6.11127778 40.3390151,6.24811111 40.6523481,6.41133333 L40.6523481,6.41133333 C41.2720365,6.7475 41.8608476,7.18922222 42.388014,7.72466667 L42.388014,7.72466667 C42.9151804,8.26244444 43.3757024,8.89388889 43.7556248,9.58055556 L43.7556248,9.58055556 C44.5154697,10.9586667 44.928522,12.5648333 44.919072,14.1637778 L44.919072,14.1637778 L44.919072,14.2262778 C44.9177534,14.3189444 44.9120944,14.5059444 44.9060508,14.6816111 L44.9060508,14.6816111 C44.8994028,14.8762222 45.0470314,15.0406111 45.2391079,15.0531667 L45.2391079,15.0531667 L48.9808081,15.2972222 C49.1671706,15.3093333 49.331062,15.1741111 49.3565549,14.9870556 L49.3565549,14.9870556 C49.3808942,14.8082222 49.4063322,14.6136111 49.4184743,14.5095556 L49.4184743,14.5095556 C49.7057649,12.0654444 49.2879327,9.56372222 48.2668946,7.31411111 L48.2668946,7.31411111 C47.7588479,6.18327778 47.08213,5.12211111 46.262948,4.15933333 L46.262948,4.15933333 C45.8546756,3.67672222 45.3987687,3.22777778 44.9167095,2.80527778 L44.9167095,2.80527778 C44.4300352,2.38511111 43.9005063,2.01055556 43.3472975,1.66477778 L43.3472975,1.66477778 C42.7893087,1.32872222 42.2004427,1.03577778 41.5903142,0.790888889 L41.5903142,0.790888889 C40.975241,0.555611111 40.3413227,0.356333333 39.6931195,0.226722222 L39.6931195,0.226722222 C39.0473888,0.101833333 38.3895708,0.0177777778 37.7365877,0.00822222222 L37.7365877,0.00822222222 C37.6380771,0.0025 37.5416543,0 37.4464402,0 L37.4464402,0 L37.4198483,0 Z M90.9843502,19.9999444 L90.9843502,24 L94.356512,24 L94.356512,34 L98.3123203,34 L98.3123203,24 L101.684537,24 L101.684537,19.9999444 L90.9843502,19.9999444 Z M112.530814,20.0272222 L110.037226,28.4242222 L107.536221,20.0272222 L103.400369,20.0272222 L107.899332,34 L112.167704,34 L116.666667,20.0272222 L112.530814,20.0272222 Z M47.1120733,31.2169444 C46.4329928,31.2577222 45.7586923,31.3873889 45.1033467,31.5674444 L45.1033467,31.5674444 C41.9596878,32.427 39.2695733,34.6405556 37.0637707,36.9862222 L37.0637707,36.9862222 C36.4773221,37.6104444 35.9312007,38.2682222 35.4135942,38.9477222 L35.4135942,38.9477222 C35.5394109,37.9825556 35.7816492,37.0438333 36.0024602,36.0979444 L36.0024602,36.0979444 C36.0475674,35.9057778 36.0950371,35.7112778 36.1425618,35.5192778 L36.1425618,35.5192778 L37.0780555,32.4341667 C37.1350301,32.2084444 36.9640513,31.9876111 36.7337354,31.9876111 L36.7337354,31.9876111 L31.2465897,31.9876111 C31.0756658,31.9876111 30.9308392,32.11 30.8975995,32.2804444 L30.8975995,32.2804444 L30.4037278,34.23 C30.3647191,34.4136111 30.3010416,34.7136111 30.2620329,34.8972222 L30.2620329,34.8972222 L30.0380902,36.1987222 C29.8908462,37.0773889 29.7602496,37.9561667 29.6320704,38.8348889 L29.6320704,38.8348889 C29.3827446,40.5946667 29.1761635,42.3617778 29.0076021,44.1312778 L29.0076021,44.1312778 C28.8342608,45.9031111 28.7203116,47.6845556 28.6443271,49.4707778 L28.6443271,49.4707778 C28.5683426,51.2546667 28.5730676,53.0553333 28.6182297,54.8583333 L28.6182297,54.8583333 C28.6237239,55.0392222 28.6392724,55.4111111 28.660425,55.7807222 L28.660425,55.7807222 C28.6704794,55.9569444 28.8145367,56.0947222 28.9891417,56.0947222 L28.9891417,56.0947222 L33.4964557,56.0947222 C33.6563362,56.0947222 33.7919326,55.9786111 33.8192386,55.8192778 L33.8192386,55.8192778 C34.5462283,51.5788333 35.9093889,47.3725556 38.1916156,43.7207222 L38.1916156,43.7207222 C40.366541,40.2466111 44.1417557,36.6428333 48.190031,37.0077222 L48.190031,37.0077222 C48.3610098,37.0222222 48.5152864,36.9069444 48.5580311,36.7389444 L48.5580311,36.7389444 C48.8144444,35.7425 49.5624218,32.8495 49.8259226,31.8314444 L49.8259226,31.8314444 C49.8782272,31.6275 49.7476306,31.4257222 49.543412,31.3849444 L49.543412,31.3849444 C48.938448,31.2597222 48.3144742,31.1975556 47.7012689,31.1975556 L47.7012689,31.1975556 C47.5034236,31.1975556 47.306677,31.2040556 47.1120733,31.2169444 L47.1120733,31.2169444 Z M80.5168968,31.3842222 C79.3748219,31.5666667 78.3205441,31.9243333 77.3329106,32.3997222 L77.3329106,32.3997222 C73.5030288,34.2628333 70.6372105,37.8353333 69.6162274,42.0512222 L69.6162274,42.0512222 C69.2007027,43.7487222 69.0938958,45.5686111 69.3573966,47.3500556 L69.3573966,47.3500556 C69.3573966,47.4268889 67.6811228,48.0847222 67.514869,48.1567222 L67.514869,48.1567222 C66.2802173,48.7041667 65.0408405,49.2467222 63.7895414,49.7557222 L63.7895414,49.7557222 C63.4238489,49.9046111 63.0559038,50.0533889 62.6854863,50.1998889 L62.6854863,50.1998889 C61.8330646,50.5312222 60.9664129,50.8361111 60.0737188,51.0162222 L60.0737188,51.0162222 C59.7531335,51.081 59.4278782,51.129 59.1002054,51.1530556 L59.1002054,51.1530556 C58.1029571,51.2227222 57.2363054,51.0137778 56.3767961,50.5072222 L56.3767961,50.5072222 C55.8900669,50.1758333 55.4673998,49.7461111 55.1207171,49.2203333 L55.1207171,49.2203333 C57.2078455,48.6849444 59.1382251,47.8590556 60.9711928,46.8146667 L60.9711928,46.8146667 C62.0799729,46.1808333 63.1460633,45.4485556 64.1552339,44.5794444 L64.1552339,44.5794444 C65.1619322,43.7055 66.1306108,42.6971667 66.9070481,41.3334444 L66.9070481,41.3334444 C67.289333,40.6492222 67.6193683,39.8568889 67.7737547,38.9397222 L67.7737547,38.9397222 C67.9303937,38.0274444 67.8662766,36.9854444 67.5410213,36.0587222 L67.5410213,36.0587222 C67.4578944,35.809 67.3866898,35.6505556 67.3083428,35.4536667 L67.3083428,35.4536667 C67.2204909,35.264 67.1350015,35.0743333 67.0329197,34.8871111 L67.0329197,34.8871111 C66.833481,34.5101667 66.5841552,34.138 66.3040071,33.7850556 L66.3040071,33.7850556 C65.7317334,33.0792222 64.9719985,32.4645556 64.1385316,32.0588333 L64.1385316,32.0588333 C63.3051747,31.6458889 62.4242931,31.4442222 61.5908812,31.3769444 L61.5908812,31.3769444 C60.7551068,31.3073333 59.9596597,31.3697778 59.2046497,31.5066667 L59.2046497,31.5066667 C58.4519473,31.6482778 57.7373195,31.8619444 57.0558766,32.1381111 L57.0558766,32.1381111 C56.7186989,32.2772778 56.3720712,32.4286111 56.0633533,32.5918333 L56.0633533,32.5918333 C55.7451854,32.7502778 55.4413024,32.9279444 55.135002,33.1056667 L55.135002,33.1056667 C52.7060807,34.5701667 50.7448239,36.7453333 49.5006672,39.3262778 L49.5006672,39.3262778 C48.8761989,40.6155556 48.4393019,42.0152778 48.2256333,43.4702222 L48.2256333,43.4702222 C48.121189,44.2001111 48.0689393,44.9396111 48.0808068,45.6862778 L48.0808068,45.6862778 C48.0926742,46.4328889 48.1757462,47.182 48.3111227,47.9215 L48.3111227,47.9215 C48.4440818,48.6609444 48.6648928,49.3883889 48.9331736,50.0893889 L48.9331736,50.0893889 C49.0638251,50.4423889 49.2205191,50.7832778 49.3795756,51.1218333 L49.3795756,51.1218333 C49.5315445,51.4363333 49.7024684,51.7484444 49.8876772,52.0533889 L49.8876772,52.0533889 L49.8995446,52.0726111 C50.4218761,52.9441111 51.0938691,53.7867778 51.9248635,54.5071111 L51.9248635,54.5071111 C52.8627747,55.3257222 54.0000696,55.9523889 55.1611543,56.3197222 L55.1611543,56.3197222 C56.3246015,56.6847222 57.4974986,56.8095556 58.5991912,56.7855 L58.5991912,56.7855 C59.7033013,56.7614444 60.7456019,56.5862222 61.7333452,56.3365 L61.7333452,56.3365 C62.7234511,56.0820556 63.6660873,55.6739444 64.5564188,55.2465556 L64.5564188,55.2465556 C64.9971618,55.0402778 65.4571344,54.8207222 65.9030419,54.607 L65.9030419,54.607 C66.3490593,54.3932222 66.7905715,54.179 67.2275784,53.9644444 L67.2275784,53.9644444 L71.0337253,52.0726111 C71.5560569,52.9441111 72.2279949,53.7867778 73.0590443,54.5071111 L73.0590443,54.5071111 C73.9969005,55.3257222 75.1341954,55.9523889 76.2952251,56.3197222 L76.2952251,56.3197222 C77.4587273,56.6847222 78.6316244,56.8095556 79.7333171,56.7855 L79.7333171,56.7855 C80.8374271,56.7614444 81.8797277,56.5862222 82.867526,56.3365 L82.867526,56.3365 C83.8576318,56.0820556 84.7931256,55.7507222 85.6905996,55.3666111 L85.6905996,55.3666111 C88.0364489,54.3606111 90.2422516,52.9801111 92.0799992,51.1866667 L92.0799992,51.1866667 C92.9109937,50.3775556 93.8441249,49.5900556 94.5113379,48.6321111 L94.5113379,48.6321111 C94.5944099,48.5097222 94.5493027,48.3416667 94.4187061,48.2743889 L94.4187061,48.2743889 L90.3609808,46.1808333 C90.2351091,46.116 90.0831402,46.1327222 89.9739159,46.2240556 L89.9739159,46.2240556 C87.0629904,48.6561667 83.4729295,51.0402222 79.6526076,51.033 L79.6526076,51.033 C79.0542366,51.033 78.5128952,50.9489444 78.0523183,50.7905 L78.0523183,50.7905 C77.5940489,50.6296111 77.2118189,50.4016111 76.8674987,50.0870556 L76.8674987,50.0870556 C76.7154748,49.9526111 76.5730657,49.7941111 76.4353816,49.6188333 L76.4353816,49.6188333 C76.4448866,49.5708333 76.451974,49.5492222 76.461479,49.5012222 L76.461479,49.5012222 L78.7883184,48.4304444 L79.954183,47.9022222 L80.2461986,47.7702222 C80.345863,47.7246111 80.4338248,47.6862222 80.552554,47.6285 L80.552554,47.6285 C80.7780351,47.5181111 80.9988461,47.4076667 81.2030647,47.2996111 L81.2030647,47.2996111 C82.872196,46.4088889 84.4844077,45.3765 85.9422879,43.9624444 L85.9422879,43.9624444 C86.6712005,43.2612778 87.3692908,42.4546667 87.9581019,41.4535 L87.9581019,41.4535 C88.2501175,40.9517222 88.5113107,40.3922778 88.6989369,39.7632778 L88.6989369,39.7632778 C88.8864532,39.1366667 88.993315,38.4307778 88.9695801,37.6985 L88.9695801,37.6985 C88.9624926,37.5160556 88.9529328,37.3335556 88.9221104,37.1487222 L88.9221104,37.1487222 C88.9007381,36.9637778 88.8698608,36.7813333 88.8246986,36.6037222 L88.8246986,36.6037222 C88.7867339,36.4212222 88.7369017,36.2435556 88.6775645,36.0707222 L88.6775645,36.0707222 C88.6490498,35.9867222 88.6181725,35.8906667 88.5897126,35.8162222 L88.5897126,35.8162222 L88.5042232,35.6025556 C88.2738523,35.0359444 87.9628269,34.4669444 87.5615871,33.9267222 L87.5615871,33.9267222 C87.1579298,33.3865556 86.6546081,32.8822778 86.0728845,32.4837778 L86.0728845,32.4837778 C85.4935234,32.0827778 84.8500453,31.7851667 84.2089845,31.5882778 L84.2089845,31.5882778 C83.4441949,31.3593889 82.6892399,31.2668333 81.9646677,31.2668333 L81.9646677,31.2668333 C81.4654666,31.2668333 80.9807702,31.3107222 80.5168968,31.3842222 L80.5168968,31.3842222 Z M54.1187988,44.3272778 C54.1734109,43.9096111 54.2707128,43.4917778 54.384717,43.0788889 L54.384717,43.0788889 C54.4963038,42.6635 54.6482727,42.2529444 54.8239765,41.8520556 L54.8239765,41.8520556 C55.5267369,40.2482778 56.6664492,38.7812778 58.0863097,37.7321667 L58.0863097,37.7321667 C58.4424973,37.4752778 58.8223648,37.2351667 59.1785523,37.0502778 L59.1785523,37.0502778 C59.5465524,36.8606111 59.9216949,36.7117778 60.2873874,36.6061111 L60.2873874,36.6061111 C60.6506625,36.5028333 61.0044326,36.4476667 61.310733,36.4404444 L61.310733,36.4404444 C61.6170335,36.4428333 61.8781718,36.4836667 62.0799729,36.5628889 L62.0799729,36.5628889 C62.5768664,36.7579444 62.97926,37.2563333 63.0960663,37.7823333 L63.0960663,37.7823333 C63.19639,38.2335 63.0466187,38.6561111 62.8374553,39.0501667 L62.8374553,39.0501667 C62.4907726,39.7103889 61.8733918,40.4211667 61.1539841,41.0573333 L61.1539841,41.0573333 C60.4297965,41.6959444 59.5916596,42.2722222 58.710778,42.7787778 L58.710778,42.7787778 C57.8228089,43.2781667 56.8896227,43.7199444 55.9304491,44.0536667 L55.9304491,44.0536667 C55.3225732,44.2697222 54.7076648,44.4473333 54.0950639,44.5866111 L54.0950639,44.5866111 C54.1045139,44.5002222 54.1092938,44.4137222 54.1187988,44.3272778 L54.1187988,44.3272778 Z M75.3597863,43.4966111 C75.5188428,42.8796111 75.7467963,42.2746111 76.0222194,41.684 L76.0222194,41.684 C76.3023676,41.0957222 76.6585551,40.5411667 77.0407851,40.0082222 L77.0407851,40.0082222 C77.8148599,38.9469444 78.7978233,38.0442222 79.8972084,37.3672222 L79.8972084,37.3672222 C80.419485,37.0478889 80.9798362,36.803 81.5093651,36.6612778 L81.5093651,36.6612778 C82.0412016,36.5148889 82.5255683,36.4908333 82.881701,36.5484444 L82.881701,36.5484444 C83.8783449,36.7097222 84.44452,37.8383889 84.0526752,38.7530556 L84.0526752,38.7530556 C84.0027331,38.8695556 83.9441652,38.9822222 83.8837292,39.0934444 L83.8837292,39.0934444 C83.617811,39.5832222 83.2117912,40.1113889 82.7178646,40.6012222 L82.7178646,40.6012222 C82.2216853,41.0933889 81.6517742,41.5567222 81.0415908,41.9841111 L81.0415908,41.9841111 C80.4338248,42.4138333 79.7808417,42.8052222 79.1017063,43.1461111 L79.1017063,43.1461111 C78.9284199,43.2349444 78.766946,43.3142222 78.6078896,43.3886111 L78.6078896,43.3886111 C78.5343225,43.4269444 78.4274058,43.4702222 78.3324664,43.5134444 L78.3324664,43.5134444 L78.0404509,43.6431111 L76.8698612,44.1568333 L75.1294704,44.9107222 C75.1650727,44.4402222 75.2410572,43.9671667 75.3597863,43.4966111 L75.3597863,43.4966111 Z" id="path-1"></path>
        <linearGradient x1="-2.34066538e-05%" y1="49.9999944%" x2="100.000013%" y2="49.9999944%" id="linearGradient-3">
            <stop stop-color="#B1FF00" offset="0%"></stop>
            <stop stop-color="#00C893" offset="100%"></stop>
        </linearGradient>
    </defs>
    <g id="logo/freetv/large/gradient-on-dark" stroke="none" stroke-width="1" fill="none" fill-rule="evenodd">
        <g id="scribble" transform="translate(2.000000, 0.000000)">
            <mask id="mask-2" fill="white">
                <use xlink:href="#path-1"></use>
            </mask>
            <g id="Clip-2"></g>
            <path d="M37.4198483,0 C37.2032129,0 36.9925112,0.0113333333 36.777469,0.0177777778 L36.777469,0.0177777778 C36.4640262,0.0202222222 36.1411333,0.0634444444 35.8229654,0.0946666667 L35.8229654,0.0946666667 C34.5431516,0.241111111 33.2348229,0.608444444 32.0358284,1.21344444 L32.0358284,1.21344444 C30.8320539,1.80883333 29.7469537,2.61794444 28.8471721,3.53511111 L28.8471721,3.53511111 C27.9377758,4.44744444 27.1826559,5.44861111 26.5652751,6.47861111 L26.5652751,6.47861111 C25.9455867,7.50855556 25.4399026,8.56255556 25.0077305,9.61655556 L25.0077305,9.61655556 C24.1553637,11.7268889 23.5783651,13.8445 23.1272381,15.9236667 L23.1272381,15.9236667 C22.8993396,16.9824444 22.7094059,17.9476111 22.5028248,18.9439444 L22.5028248,18.9439444 L22.2789919,20.054 C20.711393,20.0766111 19.1426403,20.1141667 17.5735579,20.166 L17.5735579,20.166 C16.6642165,20.1972222 15.75493,20.2308333 14.8431161,20.2764444 L14.8431161,20.2764444 L13.4731977,20.3460556 L12.0746547,20.4348889 C12.0461399,20.4372778 12.0058126,20.4397222 11.9772978,20.4421111 L11.9772978,20.4421111 C11.8452178,20.4559444 11.4270559,20.4697778 11.0953723,20.4841667 L11.0953723,20.4841667 C10.8775282,20.4936667 10.7198453,20.6972222 10.7619307,20.9135 L10.7619307,20.9135 L11.7803865,26.1480556 C11.8141757,26.3211111 11.966749,26.4440556 12.1411342,26.4383333 L12.1411342,26.4383333 C12.311179,26.4327778 12.4958384,26.4268889 12.5375941,26.4202778 L12.5375941,26.4202778 L12.6089086,26.4131111 L13.895755,26.2882222 L15.2134787,26.1777778 C16.0943603,26.1033889 16.9800218,26.0409444 17.8633209,25.9809444 L17.8633209,25.9809444 C18.9495199,25.9087222 20.0382463,25.8441111 21.1281814,25.7847778 L21.1281814,25.7847778 L20.8977006,26.9341111 L20.7100744,27.8728333 L19.5253647,33.8270556 L19.2310416,35.318 L18.9364987,36.7777222 C18.7346426,37.7500556 18.5233365,38.7152222 18.300163,39.6731667 L18.300163,39.6731667 C18.0769895,40.6335 17.8420035,41.5866667 17.5903152,42.5326667 L17.5903152,42.5326667 C17.4643886,43.0056111 17.3338469,43.4761667 17.2008329,43.9442778 L17.2008329,43.9442778 L16.7782756,45.4088889 C16.2250668,47.3823889 15.7311951,49.1470556 14.9927776,50.5371667 L14.9927776,50.5371667 C14.6270851,51.2357778 14.2068354,51.8432222 13.7342811,52.3473889 L13.7342811,52.3473889 C13.2546393,52.8587778 12.703848,53.2765556 12.1506392,53.5574444 L12.1506392,53.5574444 C11.8727986,53.6991667 11.5973754,53.8095556 11.3267871,53.8792222 L11.3267871,53.8792222 C11.051309,53.9512222 10.8043457,53.9872222 10.5241426,53.9944444 L10.5241426,53.9944444 C10.2155346,54.0088333 9.94956147,53.9727778 9.7002906,53.932 L9.7002906,53.932 C9.45568979,53.8839444 9.24674619,53.8023333 9.04258252,53.7015 L9.04258252,53.7015 C8.64370518,53.5070556 8.26850775,53.1517222 7.8957827,52.6378889 L7.8957827,52.6378889 C7.53014514,52.1121111 7.20005491,51.4327222 6.93649918,50.6667778 L6.93649918,50.6667778 C6.39993773,49.1254444 6.10550472,47.3103333 5.93463577,45.4400556 L5.93463577,45.4400556 L5.93463577,45.4184444 C5.93029537,45.3715 5.92617474,45.3248889 5.92210905,45.2787222 L5.92210905,45.2787222 C5.90518698,45.0915556 5.74876772,44.9497222 5.56289967,44.9520556 L5.56289967,44.9520556 L0.351506779,45.0175556 C0.152013167,45.0201111 -0.0061092828,45.1868333 0.00018138812,45.3885556 L0.00018138812,45.3885556 C0.00779098816,45.6242222 0.0163619062,45.8946667 0.0248229407,45.9874444 L0.0248229407,45.9874444 C0.228931663,48.1458333 0.549516963,50.3691111 1.33776672,52.6619444 L1.33776672,52.6619444 C1.73428156,53.8047222 2.26617296,54.974 3.05442271,56.1096111 L3.05442271,56.1096111 C3.45335499,56.6762222 3.92107439,57.2283889 4.46950326,57.735 L4.46950326,57.735 C5.01573446,58.2415556 5.65437774,58.6953333 6.34768809,59.0482222 L6.34768809,59.0482222 C7.03869089,59.4012222 7.779416,59.6652778 8.5178885,59.8141667 L8.5178885,59.8141667 C9.14334575,59.9345556 9.76896783,59.9993889 10.3683277,60 L10.3683277,60 L10.3824478,60 C10.4835407,60 10.5838643,59.9980556 10.683309,59.9942222 L10.683309,59.9942222 C11.4050242,59.9773889 12.1553642,59.867 12.8486745,59.6821111 L12.8486745,59.6821111 C13.5491273,59.4972778 14.2091979,59.2307778 14.8240514,58.9162222 L14.8240514,58.9162222 C16.0612304,58.2823333 17.1224859,57.4517222 18.0247948,56.4937222 L18.0247948,56.4937222 C18.9364987,55.5333889 19.6654113,54.4577778 20.2376849,53.3677778 L20.2376849,53.3677778 C20.8193536,52.2753889 21.2443283,51.1757778 21.6029333,50.1169444 L21.6029333,50.1169444 C21.9543409,49.063 22.2416315,48.0402222 22.5170547,47.0822778 L22.5170547,47.0822778 L22.9396119,45.6321667 C23.0844934,45.1279444 23.2269574,44.6237778 23.3646965,44.1172222 L23.3646965,44.1172222 C23.6377022,43.1087778 23.8941705,42.0980556 24.1363538,41.0872778 L24.1363538,41.0872778 C24.3808448,40.0765 24.6089081,39.0633333 24.8273017,38.0549444 L24.8273017,38.0549444 L25.1454695,36.5423889 L25.451715,35.0514444 L26.6649944,29.0972778 L27.2277631,26.2930556 L27.3830835,25.5198889 C29.5394935,25.4500556 31.6976617,25.4006111 33.8569287,25.3831667 L33.8569287,25.3831667 C37.4184748,25.3591667 40.9824383,25.3687778 44.5439845,25.4719444 L44.5439845,25.4719444 C46.3270651,25.5079444 48.1055306,25.5896111 49.8862487,25.6568333 L49.8862487,25.6568333 C51.6670767,25.7288333 53.4453773,25.8465 55.2261504,25.9377222 L55.2261504,25.9377222 L55.2807625,25.9401111 C55.3236721,25.9441667 55.602117,25.9482222 55.84941,25.9518889 L55.84941,25.9518889 C56.0602765,25.955 56.2276292,25.7731111 56.2093885,25.5606111 L56.2093885,25.5606111 L55.9095712,21.7181111 C55.895671,21.54 55.7542508,21.3990556 55.5778877,21.3871111 L55.5778877,21.3871111 C55.4949256,21.3814444 55.4213036,21.3765556 55.3910307,21.3742778 L55.3910307,21.3742778 C53.5888853,21.2206111 51.9756847,21.0567222 50.1688143,20.9247222 L50.1688143,20.9247222 C48.3642514,20.7926667 46.557436,20.651 44.7505106,20.5549444 L44.7505106,20.5549444 C41.1367698,20.3292222 37.5158316,20.1972222 33.8949484,20.1012222 L33.8949484,20.1012222 C32.0928579,20.0557778 30.2909323,20.0301667 28.4881825,20.0210556 L28.4881825,20.0210556 L29.0513358,17.2225556 C29.4477957,15.3450556 29.9226575,13.5371667 30.5590482,11.8829444 L30.5590482,11.8829444 C31.204779,10.2455556 32.0168185,8.76183333 33.0188467,7.70544444 L33.0188467,7.70544444 C33.515026,7.17244444 34.0587848,6.75472222 34.6476508,6.44016667 L34.6476508,6.44016667 C35.2341544,6.12327778 35.8703802,5.89755556 36.5779205,5.7895 L36.5779205,5.7895 C36.7560417,5.77033333 36.9293281,5.7295 37.1168994,5.72472222 L37.1168994,5.72472222 C37.2997456,5.71272222 37.4920968,5.68872222 37.6607131,5.69588889 L37.6607131,5.69588889 C38.0097583,5.6815 38.351661,5.7175 38.6912012,5.76316667 L38.6912012,5.76316667 C39.0306865,5.80872222 39.3607218,5.89755556 39.690812,5.99838889 L39.690812,5.99838889 C40.0184298,6.11127778 40.3390151,6.24811111 40.6523481,6.41133333 L40.6523481,6.41133333 C41.2720365,6.7475 41.8608476,7.18922222 42.388014,7.72466667 L42.388014,7.72466667 C42.9151804,8.26244444 43.3757024,8.89388889 43.7556248,9.58055556 L43.7556248,9.58055556 C44.5154697,10.9586667 44.928522,12.5648333 44.919072,14.1637778 L44.919072,14.1637778 L44.919072,14.2262778 C44.9177534,14.3189444 44.9120944,14.5059444 44.9060508,14.6816111 L44.9060508,14.6816111 C44.8994028,14.8762222 45.0470314,15.0406111 45.2391079,15.0531667 L45.2391079,15.0531667 L48.9808081,15.2972222 C49.1671706,15.3093333 49.331062,15.1741111 49.3565549,14.9870556 L49.3565549,14.9870556 C49.3808942,14.8082222 49.4063322,14.6136111 49.4184743,14.5095556 L49.4184743,14.5095556 C49.7057649,12.0654444 49.2879327,9.56372222 48.2668946,7.31411111 L48.2668946,7.31411111 C47.7588479,6.18327778 47.08213,5.12211111 46.262948,4.15933333 L46.262948,4.15933333 C45.8546756,3.67672222 45.3987687,3.22777778 44.9167095,2.80527778 L44.9167095,2.80527778 C44.4300352,2.38511111 43.9005063,2.01055556 43.3472975,1.66477778 L43.3472975,1.66477778 C42.7893087,1.32872222 42.2004427,1.03577778 41.5903142,0.790888889 L41.5903142,0.790888889 C40.975241,0.555611111 40.3413227,0.356333333 39.6931195,0.226722222 L39.6931195,0.226722222 C39.0473888,0.101833333 38.3895708,0.0177777778 37.7365877,0.00822222222 L37.7365877,0.00822222222 C37.6380771,0.0025 37.5416543,0 37.4464402,0 L37.4464402,0 L37.4198483,0 Z M90.9843502,19.9999444 L90.9843502,24 L94.356512,24 L94.356512,34 L98.3123203,34 L98.3123203,24 L101.684537,24 L101.684537,19.9999444 L90.9843502,19.9999444 Z M112.530814,20.0272222 L110.037226,28.4242222 L107.536221,20.0272222 L103.400369,20.0272222 L107.899332,34 L112.167704,34 L116.666667,20.0272222 L112.530814,20.0272222 Z M47.1120733,31.2169444 C46.4329928,31.2577222 45.7586923,31.3873889 45.1033467,31.5674444 L45.1033467,31.5674444 C41.9596878,32.427 39.2695733,34.6405556 37.0637707,36.9862222 L37.0637707,36.9862222 C36.4773221,37.6104444 35.9312007,38.2682222 35.4135942,38.9477222 L35.4135942,38.9477222 C35.5394109,37.9825556 35.7816492,37.0438333 36.0024602,36.0979444 L36.0024602,36.0979444 C36.0475674,35.9057778 36.0950371,35.7112778 36.1425618,35.5192778 L36.1425618,35.5192778 L37.0780555,32.4341667 C37.1350301,32.2084444 36.9640513,31.9876111 36.7337354,31.9876111 L36.7337354,31.9876111 L31.2465897,31.9876111 C31.0756658,31.9876111 30.9308392,32.11 30.8975995,32.2804444 L30.8975995,32.2804444 L30.4037278,34.23 C30.3647191,34.4136111 30.3010416,34.7136111 30.2620329,34.8972222 L30.2620329,34.8972222 L30.0380902,36.1987222 C29.8908462,37.0773889 29.7602496,37.9561667 29.6320704,38.8348889 L29.6320704,38.8348889 C29.3827446,40.5946667 29.1761635,42.3617778 29.0076021,44.1312778 L29.0076021,44.1312778 C28.8342608,45.9031111 28.7203116,47.6845556 28.6443271,49.4707778 L28.6443271,49.4707778 C28.5683426,51.2546667 28.5730676,53.0553333 28.6182297,54.8583333 L28.6182297,54.8583333 C28.6237239,55.0392222 28.6392724,55.4111111 28.660425,55.7807222 L28.660425,55.7807222 C28.6704794,55.9569444 28.8145367,56.0947222 28.9891417,56.0947222 L28.9891417,56.0947222 L33.4964557,56.0947222 C33.6563362,56.0947222 33.7919326,55.9786111 33.8192386,55.8192778 L33.8192386,55.8192778 C34.5462283,51.5788333 35.9093889,47.3725556 38.1916156,43.7207222 L38.1916156,43.7207222 C40.366541,40.2466111 44.1417557,36.6428333 48.190031,37.0077222 L48.190031,37.0077222 C48.3610098,37.0222222 48.5152864,36.9069444 48.5580311,36.7389444 L48.5580311,36.7389444 C48.8144444,35.7425 49.5624218,32.8495 49.8259226,31.8314444 L49.8259226,31.8314444 C49.8782272,31.6275 49.7476306,31.4257222 49.543412,31.3849444 L49.543412,31.3849444 C48.938448,31.2597222 48.3144742,31.1975556 47.7012689,31.1975556 L47.7012689,31.1975556 C47.5034236,31.1975556 47.306677,31.2040556 47.1120733,31.2169444 L47.1120733,31.2169444 Z M80.5168968,31.3842222 C79.3748219,31.5666667 78.3205441,31.9243333 77.3329106,32.3997222 L77.3329106,32.3997222 C73.5030288,34.2628333 70.6372105,37.8353333 69.6162274,42.0512222 L69.6162274,42.0512222 C69.2007027,43.7487222 69.0938958,45.5686111 69.3573966,47.3500556 L69.3573966,47.3500556 C69.3573966,47.4268889 67.6811228,48.0847222 67.514869,48.1567222 L67.514869,48.1567222 C66.2802173,48.7041667 65.0408405,49.2467222 63.7895414,49.7557222 L63.7895414,49.7557222 C63.4238489,49.9046111 63.0559038,50.0533889 62.6854863,50.1998889 L62.6854863,50.1998889 C61.8330646,50.5312222 60.9664129,50.8361111 60.0737188,51.0162222 L60.0737188,51.0162222 C59.7531335,51.081 59.4278782,51.129 59.1002054,51.1530556 L59.1002054,51.1530556 C58.1029571,51.2227222 57.2363054,51.0137778 56.3767961,50.5072222 L56.3767961,50.5072222 C55.8900669,50.1758333 55.4673998,49.7461111 55.1207171,49.2203333 L55.1207171,49.2203333 C57.2078455,48.6849444 59.1382251,47.8590556 60.9711928,46.8146667 L60.9711928,46.8146667 C62.0799729,46.1808333 63.1460633,45.4485556 64.1552339,44.5794444 L64.1552339,44.5794444 C65.1619322,43.7055 66.1306108,42.6971667 66.9070481,41.3334444 L66.9070481,41.3334444 C67.289333,40.6492222 67.6193683,39.8568889 67.7737547,38.9397222 L67.7737547,38.9397222 C67.9303937,38.0274444 67.8662766,36.9854444 67.5410213,36.0587222 L67.5410213,36.0587222 C67.4578944,35.809 67.3866898,35.6505556 67.3083428,35.4536667 L67.3083428,35.4536667 C67.2204909,35.264 67.1350015,35.0743333 67.0329197,34.8871111 L67.0329197,34.8871111 C66.833481,34.5101667 66.5841552,34.138 66.3040071,33.7850556 L66.3040071,33.7850556 C65.7317334,33.0792222 64.9719985,32.4645556 64.1385316,32.0588333 L64.1385316,32.0588333 C63.3051747,31.6458889 62.4242931,31.4442222 61.5908812,31.3769444 L61.5908812,31.3769444 C60.7551068,31.3073333 59.9596597,31.3697778 59.2046497,31.5066667 L59.2046497,31.5066667 C58.4519473,31.6482778 57.7373195,31.8619444 57.0558766,32.1381111 L57.0558766,32.1381111 C56.7186989,32.2772778 56.3720712,32.4286111 56.0633533,32.5918333 L56.0633533,32.5918333 C55.7451854,32.7502778 55.4413024,32.9279444 55.135002,33.1056667 L55.135002,33.1056667 C52.7060807,34.5701667 50.7448239,36.7453333 49.5006672,39.3262778 L49.5006672,39.3262778 C48.8761989,40.6155556 48.4393019,42.0152778 48.2256333,43.4702222 L48.2256333,43.4702222 C48.121189,44.2001111 48.0689393,44.9396111 48.0808068,45.6862778 L48.0808068,45.6862778 C48.0926742,46.4328889 48.1757462,47.182 48.3111227,47.9215 L48.3111227,47.9215 C48.4440818,48.6609444 48.6648928,49.3883889 48.9331736,50.0893889 L48.9331736,50.0893889 C49.0638251,50.4423889 49.2205191,50.7832778 49.3795756,51.1218333 L49.3795756,51.1218333 C49.5315445,51.4363333 49.7024684,51.7484444 49.8876772,52.0533889 L49.8876772,52.0533889 L49.8995446,52.0726111 C50.4218761,52.9441111 51.0938691,53.7867778 51.9248635,54.5071111 L51.9248635,54.5071111 C52.8627747,55.3257222 54.0000696,55.9523889 55.1611543,56.3197222 L55.1611543,56.3197222 C56.3246015,56.6847222 57.4974986,56.8095556 58.5991912,56.7855 L58.5991912,56.7855 C59.7033013,56.7614444 60.7456019,56.5862222 61.7333452,56.3365 L61.7333452,56.3365 C62.7234511,56.0820556 63.6660873,55.6739444 64.5564188,55.2465556 L64.5564188,55.2465556 C64.9971618,55.0402778 65.4571344,54.8207222 65.9030419,54.607 L65.9030419,54.607 C66.3490593,54.3932222 66.7905715,54.179 67.2275784,53.9644444 L67.2275784,53.9644444 L71.0337253,52.0726111 C71.5560569,52.9441111 72.2279949,53.7867778 73.0590443,54.5071111 L73.0590443,54.5071111 C73.9969005,55.3257222 75.1341954,55.9523889 76.2952251,56.3197222 L76.2952251,56.3197222 C77.4587273,56.6847222 78.6316244,56.8095556 79.7333171,56.7855 L79.7333171,56.7855 C80.8374271,56.7614444 81.8797277,56.5862222 82.867526,56.3365 L82.867526,56.3365 C83.8576318,56.0820556 84.7931256,55.7507222 85.6905996,55.3666111 L85.6905996,55.3666111 C88.0364489,54.3606111 90.2422516,52.9801111 92.0799992,51.1866667 L92.0799992,51.1866667 C92.9109937,50.3775556 93.8441249,49.5900556 94.5113379,48.6321111 L94.5113379,48.6321111 C94.5944099,48.5097222 94.5493027,48.3416667 94.4187061,48.2743889 L94.4187061,48.2743889 L90.3609808,46.1808333 C90.2351091,46.116 90.0831402,46.1327222 89.9739159,46.2240556 L89.9739159,46.2240556 C87.0629904,48.6561667 83.4729295,51.0402222 79.6526076,51.033 L79.6526076,51.033 C79.0542366,51.033 78.5128952,50.9489444 78.0523183,50.7905 L78.0523183,50.7905 C77.5940489,50.6296111 77.2118189,50.4016111 76.8674987,50.0870556 L76.8674987,50.0870556 C76.7154748,49.9526111 76.5730657,49.7941111 76.4353816,49.6188333 L76.4353816,49.6188333 C76.4448866,49.5708333 76.451974,49.5492222 76.461479,49.5012222 L76.461479,49.5012222 L78.7883184,48.4304444 L79.954183,47.9022222 L80.2461986,47.7702222 C80.345863,47.7246111 80.4338248,47.6862222 80.552554,47.6285 L80.552554,47.6285 C80.7780351,47.5181111 80.9988461,47.4076667 81.2030647,47.2996111 L81.2030647,47.2996111 C82.872196,46.4088889 84.4844077,45.3765 85.9422879,43.9624444 L85.9422879,43.9624444 C86.6712005,43.2612778 87.3692908,42.4546667 87.9581019,41.4535 L87.9581019,41.4535 C88.2501175,40.9517222 88.5113107,40.3922778 88.6989369,39.7632778 L88.6989369,39.7632778 C88.8864532,39.1366667 88.993315,38.4307778 88.9695801,37.6985 L88.9695801,37.6985 C88.9624926,37.5160556 88.9529328,37.3335556 88.9221104,37.1487222 L88.9221104,37.1487222 C88.9007381,36.9637778 88.8698608,36.7813333 88.8246986,36.6037222 L88.8246986,36.6037222 C88.7867339,36.4212222 88.7369017,36.2435556 88.6775645,36.0707222 L88.6775645,36.0707222 C88.6490498,35.9867222 88.6181725,35.8906667 88.5897126,35.8162222 L88.5897126,35.8162222 L88.5042232,35.6025556 C88.2738523,35.0359444 87.9628269,34.4669444 87.5615871,33.9267222 L87.5615871,33.9267222 C87.1579298,33.3865556 86.6546081,32.8822778 86.0728845,32.4837778 L86.0728845,32.4837778 C85.4935234,32.0827778 84.8500453,31.7851667 84.2089845,31.5882778 L84.2089845,31.5882778 C83.4441949,31.3593889 82.6892399,31.2668333 81.9646677,31.2668333 L81.9646677,31.2668333 C81.4654666,31.2668333 80.9807702,31.3107222 80.5168968,31.3842222 L80.5168968,31.3842222 Z M54.1187988,44.3272778 C54.1734109,43.9096111 54.2707128,43.4917778 54.384717,43.0788889 L54.384717,43.0788889 C54.4963038,42.6635 54.6482727,42.2529444 54.8239765,41.8520556 L54.8239765,41.8520556 C55.5267369,40.2482778 56.6664492,38.7812778 58.0863097,37.7321667 L58.0863097,37.7321667 C58.4424973,37.4752778 58.8223648,37.2351667 59.1785523,37.0502778 L59.1785523,37.0502778 C59.5465524,36.8606111 59.9216949,36.7117778 60.2873874,36.6061111 L60.2873874,36.6061111 C60.6506625,36.5028333 61.0044326,36.4476667 61.310733,36.4404444 L61.310733,36.4404444 C61.6170335,36.4428333 61.8781718,36.4836667 62.0799729,36.5628889 L62.0799729,36.5628889 C62.5768664,36.7579444 62.97926,37.2563333 63.0960663,37.7823333 L63.0960663,37.7823333 C63.19639,38.2335 63.0466187,38.6561111 62.8374553,39.0501667 L62.8374553,39.0501667 C62.4907726,39.7103889 61.8733918,40.4211667 61.1539841,41.0573333 L61.1539841,41.0573333 C60.4297965,41.6959444 59.5916596,42.2722222 58.710778,42.7787778 L58.710778,42.7787778 C57.8228089,43.2781667 56.8896227,43.7199444 55.9304491,44.0536667 L55.9304491,44.0536667 C55.3225732,44.2697222 54.7076648,44.4473333 54.0950639,44.5866111 L54.0950639,44.5866111 C54.1045139,44.5002222 54.1092938,44.4137222 54.1187988,44.3272778 L54.1187988,44.3272778 Z M75.3597863,43.4966111 C75.5188428,42.8796111 75.7467963,42.2746111 76.0222194,41.684 L76.0222194,41.684 C76.3023676,41.0957222 76.6585551,40.5411667 77.0407851,40.0082222 L77.0407851,40.0082222 C77.8148599,38.9469444 78.7978233,38.0442222 79.8972084,37.3672222 L79.8972084,37.3672222 C80.419485,37.0478889 80.9798362,36.803 81.5093651,36.6612778 L81.5093651,36.6612778 C82.0412016,36.5148889 82.5255683,36.4908333 82.881701,36.5484444 L82.881701,36.5484444 C83.8783449,36.7097222 84.44452,37.8383889 84.0526752,38.7530556 L84.0526752,38.7530556 C84.0027331,38.8695556 83.9441652,38.9822222 83.8837292,39.0934444 L83.8837292,39.0934444 C83.617811,39.5832222 83.2117912,40.1113889 82.7178646,40.6012222 L82.7178646,40.6012222 C82.2216853,41.0933889 81.6517742,41.5567222 81.0415908,41.9841111 L81.0415908,41.9841111 C80.4338248,42.4138333 79.7808417,42.8052222 79.1017063,43.1461111 L79.1017063,43.1461111 C78.9284199,43.2349444 78.766946,43.3142222 78.6078896,43.3886111 L78.6078896,43.3886111 C78.5343225,43.4269444 78.4274058,43.4702222 78.3324664,43.5134444 L78.3324664,43.5134444 L78.0404509,43.6431111 L76.8698612,44.1568333 L75.1294704,44.9107222 C75.1650727,44.4402222 75.2410572,43.9671667 75.3597863,43.4966111 L75.3597863,43.4966111 Z" id="Fill-1" fill="url(#linearGradient-3)" mask="url(#mask-2)"></path>
        </g>
    </g>
</svg>