<?xml version="1.0" encoding="UTF-8"?>
<svg width="69px" height="32px" viewBox="0 0 69 32" version="1.1" xmlns="http://www.w3.org/2000/svg" xmlns:xlink="http://www.w3.org/1999/xlink">
    <g id="→-Design" stroke="none" stroke-width="1" fill="none" fill-rule="evenodd">
        <g id="FreeTV---Landingpage---Mobile" transform="translate(-24.000000, -20.000000)" fill="#13152C">
            <g id="Menu" transform="translate(24.000000, 20.000000)">
                <g id="logo/freetv/small/gradient-on-light" transform="translate(0.000000, -0.000000)">
                    <path d="M20.1566244,1.97943047e-05 L20.3321087,0.0043874221 C20.6838996,0.00948371945 21.038325,0.0543133584 21.3862676,0.12089115 C21.7355127,0.19004672 22.0770612,0.296328224 22.4084267,0.421809731 C22.7371871,0.552417166 23.054462,0.708624606 23.3551005,0.887883902 C23.6531636,1.07229876 23.9384387,1.27203213 24.2006833,1.49612107 C24.4604118,1.72148408 24.70602,1.96092116 24.9260225,2.21831381 C25.3673892,2.73176577 25.7319978,3.29775107 26.005728,3.90083268 C26.5558527,5.10065515 26.7809763,6.43490728 26.6261871,7.73840384 C26.6196155,7.79392978 26.6059393,7.8977224 26.5928256,7.99310019 C26.5818373,8.07291058 26.5231069,8.13502852 26.4486593,8.15336097 L26.3903771,8.15849282 L24.3743882,8.02832983 C24.2708994,8.02163353 24.1913586,7.93395944 24.1949405,7.83019646 C24.1973605,7.75992978 24.1996972,7.68626309 24.2010015,7.63295892 L24.2019266,7.55401862 C24.2070477,6.70124807 23.9844995,5.84459604 23.575103,5.1096033 C23.3704048,4.74341063 23.1222803,4.40664019 22.8382486,4.11979569 C22.5542168,3.83425489 22.2369716,3.59866965 21.9030899,3.41938072 C21.7342694,3.33232885 21.5615414,3.25932143 21.3850243,3.19914364 C21.2071752,3.14536585 21.029326,3.09798807 20.8464445,3.07366213 C20.6634742,3.0493362 20.4792901,3.0301362 20.2911987,3.03781027 C20.2003796,3.03395842 20.0967427,3.04678805 19.9982271,3.05318806 C19.8971657,3.0557362 19.8037712,3.07751399 19.7078309,3.08773621 C19.3266156,3.14536585 18.9837942,3.26572143 18.6677922,3.43475851 C18.3505469,3.60249187 18.0575754,3.82530673 17.7902392,4.10957346 C17.2503568,4.67295136 16.8128384,5.46429967 16.4649254,6.33757392 C16.1791916,7.07278395 15.9538952,7.86490757 15.7631004,8.68798456 L15.6525561,9.18533748 L15.3491646,10.6778711 C16.3204378,10.68276 17.2913261,10.6964193 18.2622736,10.7206267 C20.2131676,10.7718563 22.1640617,10.8422563 24.1111075,10.9626416 C25.0846896,11.0138416 26.0581828,11.0893971 27.0304625,11.1598268 C27.7605824,11.212649 28.4320404,11.2750046 29.1317553,11.337456 L29.867527,11.4012403 C29.8874262,11.4026054 29.9149955,11.4044491 29.9448147,11.4064639 C30.0208091,11.4115602 30.0847922,11.4606695 30.1111801,11.5287608 L30.1235223,11.5829972 L30.2850607,13.632331 C30.294859,13.7456644 30.2047208,13.8426718 30.0911081,13.8410125 C29.984517,13.8394718 29.8671649,13.8377604 29.8126659,13.83603 L29.7847268,13.834731 L29.7553023,13.833457 C28.7958404,13.7848051 27.837681,13.7220495 26.8782191,13.6836495 C25.9187572,13.647768 24.9605681,13.6042421 23.9998629,13.5850421 C22.0809391,13.5299902 20.1607128,13.5248643 18.241789,13.5376643 C17.4661756,13.5438668 16.6908516,13.5576544 15.915896,13.5771924 L14.7537488,13.6105828 L14.6700638,14.0229385 L14.3668499,15.5185536 L13.7131477,18.6941098 L13.5481162,19.4892804 L13.3767203,20.2959768 C13.2590521,20.8337843 13.136174,21.37414 13.0044448,21.9132216 C12.8739293,22.4523032 12.7357765,22.9913552 12.5886543,23.5291627 L12.4756003,23.9336368 L12.4756003,23.9336368 L12.3596824,24.3371332 L12.1319834,25.1105556 C11.9835586,25.6214594 11.8287695,26.166941 11.6394643,26.7290448 C11.4462517,27.2937561 11.2172502,27.8802154 10.9038532,28.462823 C10.5955477,29.0441564 10.2028172,29.6177862 9.71160066,30.1299937 C9.22544606,30.6408975 8.6536231,31.0839198 7.98707356,31.421994 C7.65576732,31.5897273 7.30015779,31.7318607 6.92273155,31.8304681 C6.54921278,31.9290459 6.14493747,31.9879496 5.75608483,31.9969274 C5.38247726,32.0110015 4.98589848,31.9764237 4.58937891,31.9008978 C4.19146805,31.8214903 3.7923731,31.6806607 3.42009761,31.4924236 C3.04654924,31.3041865 2.70242531,31.0621717 2.40815125,30.7920086 C2.1126339,30.521816 1.86066118,30.2272974 1.64572064,29.9251048 C1.22101991,29.3194454 0.934442383,28.6958601 0.720804329,28.0863488 C0.296103599,26.8635041 0.123375589,25.6777854 0.0133743406,24.5266444 C0.00881562366,24.4771629 0.00419770257,24.3329258 9.77298241e-05,24.2072073 C-0.00272672683,24.1175776 0.0559655329,24.0408698 0.137827218,24.0170186 L0.189417781,24.0093702 L2.99726181,23.9744072 C3.09740557,23.9731628 3.18165303,24.0488072 3.19077047,24.1486295 L3.1941007,24.185748 L3.1941007,24.185748 L3.19751974,24.2231776 L3.19751974,24.2347036 C3.28961174,25.2321853 3.44824917,26.2002447 3.73734287,27.0222893 C3.87934394,27.4307635 4.05716351,27.7931339 4.25419481,28.0735488 C4.45501517,28.3475933 4.65713802,28.5371045 4.87207857,28.6408082 C4.98207982,28.694586 5.09465644,28.7381119 5.22644481,28.7637415 C5.36074935,28.7854897 5.50405291,28.8047193 5.67032767,28.7970453 C5.82129817,28.7931934 5.95435942,28.7739638 6.10275454,28.7355638 C6.24854467,28.6984378 6.39696939,28.6395341 6.5466374,28.5639785 C6.84473013,28.4141711 7.14149076,28.1913562 7.39991673,27.9186154 C7.65452403,27.6497265 7.88095018,27.3257857 8.07795187,26.9531338 C8.42607208,26.3044151 8.67331448,25.5027756 8.92938454,24.6073867 L9.03998917,24.2180813 L9.2676586,23.4369849 C9.33932518,23.1872959 9.40965967,22.9363033 9.47747798,22.6840662 C9.61308501,22.1795624 9.73972262,21.6712067 9.85996618,21.1589992 L10.0356988,20.3897694 L10.0356988,20.3897694 L10.2028172,19.6147619 L10.3614842,18.8362432 L10.5200921,18.0410727 L11.1584013,14.8655164 L11.2594923,14.3648349 L11.3836729,13.7518866 C10.7964273,13.783531 10.2098329,13.8179607 9.62460021,13.8565088 L8.91024704,13.9061199 L8.91024704,13.9061199 L8.19689294,13.9614866 L7.48691718,14.0203903 L6.79354817,14.0869681 L6.7551543,14.09082 C6.73265674,14.0943459 6.63316422,14.0974866 6.54151625,14.1004496 C6.4663507,14.1028674 6.39870644,14.0614049 6.36534942,13.9974523 L6.34717873,13.9456051 L5.79844538,11.1538416 C5.7757702,11.038523 5.86069851,10.9299304 5.97807067,10.9248934 C6.12106045,10.9187304 6.29385122,10.9127761 6.39366841,10.9068786 L6.45324291,10.9024638 L6.50572736,10.8986119 L7.25924775,10.8512341 L7.99731587,10.8141082 C8.48859163,10.7897823 8.97850569,10.7718563 9.46847896,10.7552045 L10.7363943,10.7194934 L10.7363943,10.7194934 L12.003688,10.6954711 L12.1243164,10.1034414 C12.2356202,9.57203386 12.3379249,9.05730782 12.4607438,8.49259659 C12.7037767,7.3837371 13.0146871,6.25434428 13.4739039,5.1288033 C13.7067832,4.56669948 13.9792702,4.00456603 14.3131222,3.45523258 C14.6457605,2.90592877 15.0525816,2.3719731 15.5425549,1.88539522 C16.0273478,1.39623956 16.6120181,0.964743177 17.2605991,0.647172741 C17.9066049,0.324506007 18.6115187,0.128565226 19.301069,0.0504615058 C19.4724649,0.0338392801 19.6464362,0.0107874234 19.8153456,0.00948371945 L19.9856988,0.00361924636 L19.9856988,0.00361924636 L20.1566244,1.97943047e-05 Z M47.4177818,16.8470694 C47.7631786,16.9520769 48.109878,17.1108325 48.4220317,17.3246992 C48.7354582,17.5372325 49.0066427,17.8061511 49.224129,18.0942401 C49.3862891,18.310329 49.5210913,18.5350679 49.6307087,18.7614069 L49.7320115,18.988018 L49.7780427,19.1020032 C49.7934358,19.1416773 49.8100426,19.192907 49.825406,19.237707 C49.8573763,19.3298848 49.8842549,19.4246403 49.9047099,19.5219737 C49.9290132,19.6167293 49.9456496,19.714033 49.9571648,19.8126404 C49.9738012,19.9112479 49.9789223,20.0085516 49.982741,20.1058553 C49.9955291,20.4964035 49.9379531,20.8728777 49.8369212,21.2070703 C49.7358302,21.5425371 49.5951316,21.8409075 49.4377671,22.108552 C49.1205218,22.6424781 48.7443981,23.0727004 48.3516676,23.4466264 C47.5662065,24.2008191 46.6975638,24.7514266 45.7982532,25.2264786 C45.6881928,25.2840786 45.5692517,25.3429823 45.4477056,25.401886 L45.3613601,25.4420749 L45.3613601,25.4420749 L45.2826742,25.4774416 L45.1253392,25.5478713 L44.4971836,25.8295602 L43.2435068,26.4006714 C43.2384152,26.4262418 43.234567,26.4377974 43.2294458,26.4633974 C43.3036582,26.5568492 43.3803867,26.6413826 43.462266,26.7131159 C43.6477525,26.8808493 43.8537236,27.0024493 44.1006344,27.0882864 C44.348818,27.1727605 44.6404871,27.2175901 44.9628535,27.2175901 C47.0212327,27.221442 48.9554903,25.9499454 50.5238962,24.6528192 C50.5680107,24.6163081 50.6250964,24.602147 50.6794929,24.6119359 L50.7324131,24.6297674 L52.9187027,25.7463306 C52.9890668,25.782212 53.0133405,25.8718417 52.9685822,25.9371454 C52.6091244,26.4480492 52.106363,26.8680493 51.6586023,27.2995457 C50.668443,28.2560496 49.4799796,28.9923164 48.2160605,29.5288499 C47.7324813,29.7337092 47.2284767,29.9104203 46.695018,30.0461537 C46.1628026,30.1793093 45.6012219,30.2727908 45.0063686,30.2855908 C44.4127585,30.2984204 43.7808137,30.2318426 43.1539606,30.0372055 C42.5284099,29.8412944 41.9156177,29.5070721 41.4103105,29.0704498 C41.0371766,28.7503262 40.7235757,28.3848529 40.4665441,28.0029393 L40.3190899,27.7720495 L38.2683777,28.7810571 C38.0329229,28.8954571 37.7950408,29.009709 37.5547312,29.1237535 C37.3144809,29.2377091 37.0666525,29.354835 36.8292144,29.4648202 C36.3494834,29.692761 35.8416009,29.9104203 35.3081718,30.0461537 C34.6670209,30.2017685 33.9626695,30.2871206 33.1077916,30.2855908 C32.5142112,30.2984204 31.8822368,30.2318426 31.2553837,30.0372055 C30.629833,29.8412944 30.0170407,29.5070721 29.5117336,29.0704498 C29.1386243,28.7503262 28.825007,28.3848529 28.5679693,28.0029393 L28.4205129,27.7720495 L28.4141189,27.7617976 C28.3143304,27.5991902 28.2222088,27.4327013 28.1403591,27.2649975 C28.0546315,27.0844345 27.9702064,26.9026271 27.8998423,26.7143604 C27.7552955,26.340464 27.6363248,25.9525232 27.5646878,25.5581231 C27.4917484,25.163723 27.4469901,24.764197 27.440596,24.3660043 C27.434202,23.967782 27.4623239,23.573382 27.518627,23.1841078 C27.633779,22.4081373 27.869145,21.6616186 28.205602,20.9740333 C28.8759406,19.5975293 29.9326157,18.4374105 31.2413227,17.6563437 C31.4063541,17.5615585 31.5700831,17.4668325 31.7415087,17.3822992 C31.907813,17.2952473 32.094602,17.2145658 32.2762698,17.1403139 C32.6434242,16.993025 33.0284877,16.8790991 33.4340063,16.8035435 C33.8408274,16.7305657 34.2693764,16.6972324 34.7196829,16.7343879 C35.1687165,16.7702398 35.6433263,16.8777954 36.0923304,17.0980325 C36.541364,17.3144473 36.9507309,17.64224 37.2590659,18.0186845 C37.4100068,18.2069216 37.5443409,18.4054105 37.6517964,18.6064476 C37.706797,18.7063291 37.7528282,18.807455 37.8001915,18.9086106 C37.842404,19.013618 37.8807683,19.0981218 37.9255562,19.231307 C38.1008004,19.7255589 38.135346,20.2812924 38.0509209,20.7678703 C37.9677688,21.2569963 37.7899492,21.6795742 37.5839781,22.0445224 C37.1656714,22.7718114 36.6437279,23.3096189 36.1012998,23.7757227 C35.5575988,24.2392191 34.9832004,24.6297674 34.3858013,24.9678119 C33.3981878,25.5248194 32.3581491,25.9652936 31.2336557,26.2508344 C31.4204151,26.5312492 31.6481438,26.7604641 31.9103884,26.9371752 C32.373483,27.2073383 33.352127,27.3187753 33.889434,27.2816198 C34.0659807,27.2688198 34.2412249,27.2432198 34.4139529,27.208642 C34.8949271,27.1125827 35.36187,26.9499752 35.8211459,26.7732937 C36.020723,26.6951604 36.2189976,26.6157826 36.4159993,26.5363752 C37.0901861,26.2649381 37.7579494,25.9755454 38.4231668,25.6836046 C38.5127427,25.645175 39.4159015,25.2943305 39.4159015,25.2533527 C39.27393,24.3032488 39.3314764,23.3326412 39.5553568,22.4273373 C40.1054518,20.1788627 41.6495248,18.2734994 43.7129954,17.2798695 C44.2451812,17.0263287 44.8131855,16.8355435 45.4285235,16.7382398 C46.0412861,16.6421805 46.721867,16.6409064 47.4177818,16.8470694 Z M27.3331376,16.7386102 C27.4431388,16.7603879 27.5135029,16.8679732 27.4853514,16.9767732 C27.3433799,17.5197362 26.9403775,19.0626699 26.8022247,19.5941071 C26.7791943,19.6837071 26.6960421,19.7451589 26.6039501,19.7374849 C24.4227816,19.5428478 22.3887354,21.464863 21.2168787,23.3177226 C19.9872684,25.2653675 19.2528117,27.5087161 18.8611173,29.7702869 C18.8464051,29.8552647 18.7733472,29.9172203 18.6872052,29.9172203 L16.2587116,29.9172203 C16.1646658,29.9172203 16.0870196,29.8437092 16.0816025,29.749724 C16.0702057,29.552598 16.0618283,29.3542276 16.0588385,29.2577831 C16.0345352,28.2961829 16.0319894,27.3358272 16.072929,26.3844196 C16.1138687,25.4317379 16.1752634,24.4816636 16.2686579,23.5366856 C16.359477,22.5929521 16.4707807,21.6504927 16.6051149,20.7119443 C16.6741765,20.2432924 16.7445405,19.7746108 16.8238741,19.3059885 L16.9445321,18.611855 C16.9655495,18.5138994 16.9998583,18.353929 17.0208758,18.2560031 L17.2869391,17.2162399 C17.3048779,17.1253362 17.3829089,17.0600621 17.4750009,17.0600621 L20.4314177,17.0600621 C20.5555095,17.0600621 20.6476311,17.1778399 20.6169042,17.2981955 L20.1128995,18.943618 C20.0872938,19.046018 20.0617176,19.1497514 20.0373847,19.2522403 C19.9184436,19.7567441 19.7879578,20.2573664 19.7201394,20.7720925 C19.9990204,20.409722 20.2932649,20.0589071 20.6092373,19.7259589 C21.7977007,18.4749364 23.2471063,17.2944029 24.9408768,16.8359731 C25.2939702,16.7399435 25.6572763,16.6707879 26.0231577,16.6490398 C26.4529796,16.6208324 26.9020132,16.6502842 27.3331376,16.7386102 Z M45.9632551,19.4246403 C45.6779801,19.5001959 45.3760687,19.630833 45.0946419,19.8011441 C44.5023047,20.1622109 43.9726943,20.6436628 43.5556605,21.2096481 C43.3496894,21.4939149 43.1577792,21.7896779 43.0068383,22.1034261 C42.8584432,22.4184187 42.7356539,22.7410855 42.6499263,23.0701522 C42.6019488,23.2583745 42.5669258,23.5193634 42.5443205,23.743969 L42.5258345,23.9524043 L43.4635685,23.5503301 L44.0942403,23.2763152 L44.2515753,23.2071597 C44.3027572,23.1841078 44.3603332,23.1610559 44.3999704,23.1405819 C44.485698,23.1009078 44.5726688,23.0586263 44.6660633,23.0112485 C45.0319447,22.8294411 45.3837652,22.6207299 45.7112528,22.391515 C46.0400132,22.1636039 46.3470458,21.9164631 46.6144116,21.6539741 C46.8805045,21.3927593 47.0992637,21.1110407 47.2425376,20.8498258 C47.2751295,20.7905073 47.3066557,20.730448 47.333564,20.6682851 C47.5446859,20.1804627 47.239607,19.4504478 46.7026849,19.3644626 C46.5107748,19.3337366 46.249803,19.3465663 45.9632551,19.4246403 Z M34.568742,19.3068625 C34.4037106,19.3107144 34.2130733,19.3401366 34.0173445,19.3951885 C33.8203428,19.4515737 33.6182199,19.5309515 33.4199454,19.6321071 C33.2280352,19.7306849 33.0233666,19.8587441 32.8314564,19.9957516 C32.0664504,20.5553073 31.4523853,21.3377074 31.0737454,22.1930261 C30.979078,22.4068632 30.8971987,22.6258262 30.837077,22.847367 C30.7756823,23.0675744 30.7232275,23.4184486 30.693803,23.6412338 C30.6886818,23.6873375 30.6861065,23.7334412 30.6809853,23.7795153 C31.0110483,23.7052635 31.3423841,23.6105375 31.6698717,23.4952782 C32.186694,23.317293 32.6894554,23.0816781 33.1679134,22.815367 C33.6425232,22.5451743 34.0941322,22.2378261 34.4842874,21.8972335 C34.8718967,21.5579445 35.204535,21.1788926 35.3912944,20.8267443 C35.5040191,20.6165813 35.5846847,20.263159 35.5306905,20.0225368 C35.4677269,19.7420034 35.2508919,19.4761959 34.9832004,19.3721663 C34.8744721,19.3298848 34.7337735,19.3081366 34.568742,19.3068625 Z M58.4518839,10.669563 L58.4518839,13.0820672 L56.0069611,13.0820672 L56.0069611,20.2666613 L53.5988633,20.2666613 L53.5988633,13.0820672 L51.1528156,13.0820672 L51.1528156,10.669563 L58.4518839,10.669563 Z M69.0001097,10.6891482 L65.8867428,20.2666613 L63.1254332,20.2666613 L60.0131912,10.6891482 L62.5248074,10.6891482 L64.2886165,16.558542 L64.509507,17.292794 L64.7293023,16.558542 L66.4884934,10.6891482 L69.0001097,10.6891482 Z" id="freetv"></path>
                </g>
            </g>
        </g>
    </g>
</svg>